<?xml version="1.0" standalone="no"?>
<!DOCTYPE svg PUBLIC "-//W3C//DTD SVG 20010904//EN"
 "http://www.w3.org/TR/2001/REC-SVG-20010904/DTD/svg10.dtd">
<svg version="1.0" xmlns="http://www.w3.org/2000/svg"
 width="243.000000pt" height="130.000000pt" viewBox="0 0 243.000000 130.000000"
 preserveAspectRatio="xMidYMid meet">

<g transform="translate(0.000000,130.000000) scale(0.100000,-0.100000)"
fill="#125f37" stroke="none">
<path d="M1555 1100 c-54 -68 -110 -162 -137 -229 -18 -45 -22 -77 -23 -156 0
-94 2 -105 34 -169 22 -45 58 -93 103 -139 l69 -70 -3 -81 -3 -81 -182 -3
-183 -2 0 55 c0 51 3 57 46 100 121 121 129 274 24 432 -72 107 -66 104 -109
56 -20 -22 -53 -72 -72 -109 -28 -57 -35 -81 -38 -146 -3 -69 0 -85 24 -133
14 -30 46 -75 71 -100 41 -43 44 -49 44 -100 l0 -55 -180 0 -180 0 0 80 0 80
64 63 c107 107 159 245 138 364 -20 115 -90 251 -181 353 l-31 35 -26 -30
c-40 -48 -99 -136 -126 -190 -48 -96 -61 -150 -56 -244 6 -113 37 -179 136
-282 77 -82 82 -94 66 -191 l-7 -38 -178 0 -179 0 0 56 c0 53 2 58 45 102 25
25 57 69 71 99 36 73 32 181 -9 266 -30 61 -101 157 -117 157 -15 0 -107 -147
-126 -202 -40 -117 -11 -232 80 -323 43 -43 46 -49 46 -100 l0 -55 -110 0
c-103 0 -110 -1 -110 -20 0 -20 7 -20 980 -20 973 0 980 0 980 20 0 19 -7 20
-114 20 l-115 0 -4 43 -4 42 -1 -42 -2 -43 -180 0 -180 0 0 85 0 84 65 66
c161 163 184 334 75 544 -39 75 -124 191 -145 198 -6 2 -28 -19 -50 -47z"/>
<path d="M1941 813 c-60 -72 -103 -171 -109 -243 -7 -97 16 -156 88 -233 l58
-62 49 51 c71 73 98 133 98 219 0 58 -5 82 -33 139 -32 68 -99 166 -113 166
-4 0 -21 -17 -38 -37z"/>
</g>
</svg>
